<mxfile host="Electron" agent="Mozilla/5.0 (Windows NT 10.0; Win64; x64) AppleWebKit/537.36 (KHTML, like Gecko) draw.io/26.0.16 Chrome/132.0.6834.196 Electron/34.2.0 Safari/537.36" version="26.0.16">
  <diagram name="Página-1" id="h8i41CNsKWH264zCNnAE">
    <mxGraphModel dx="1050" dy="780" grid="1" gridSize="10" guides="1" tooltips="1" connect="1" arrows="1" fold="1" page="1" pageScale="1" pageWidth="827" pageHeight="1169" math="0" shadow="0">
      <root>
        <mxCell id="0" />
        <mxCell id="1" parent="0" />
        <mxCell id="OjlFNNu3Qq9sXmpgGspE-8" style="edgeStyle=orthogonalEdgeStyle;rounded=0;orthogonalLoop=1;jettySize=auto;html=1;exitX=0.5;exitY=1;exitDx=0;exitDy=0;entryX=0.5;entryY=0;entryDx=0;entryDy=0;" edge="1" parent="1" source="OjlFNNu3Qq9sXmpgGspE-1" target="OjlFNNu3Qq9sXmpgGspE-2">
          <mxGeometry relative="1" as="geometry" />
        </mxCell>
        <mxCell id="OjlFNNu3Qq9sXmpgGspE-9" style="edgeStyle=orthogonalEdgeStyle;rounded=0;orthogonalLoop=1;jettySize=auto;html=1;exitX=0.5;exitY=1;exitDx=0;exitDy=0;entryX=0.5;entryY=0;entryDx=0;entryDy=0;" edge="1" parent="1" source="OjlFNNu3Qq9sXmpgGspE-1" target="OjlFNNu3Qq9sXmpgGspE-3">
          <mxGeometry relative="1" as="geometry" />
        </mxCell>
        <mxCell id="OjlFNNu3Qq9sXmpgGspE-10" style="edgeStyle=orthogonalEdgeStyle;rounded=0;orthogonalLoop=1;jettySize=auto;html=1;exitX=0.5;exitY=1;exitDx=0;exitDy=0;entryX=0.5;entryY=0;entryDx=0;entryDy=0;" edge="1" parent="1" source="OjlFNNu3Qq9sXmpgGspE-1" target="OjlFNNu3Qq9sXmpgGspE-4">
          <mxGeometry relative="1" as="geometry" />
        </mxCell>
        <mxCell id="OjlFNNu3Qq9sXmpgGspE-13" style="edgeStyle=orthogonalEdgeStyle;rounded=0;orthogonalLoop=1;jettySize=auto;html=1;exitX=0.5;exitY=1;exitDx=0;exitDy=0;entryX=0.5;entryY=0;entryDx=0;entryDy=0;" edge="1" parent="1" source="OjlFNNu3Qq9sXmpgGspE-1" target="OjlFNNu3Qq9sXmpgGspE-5">
          <mxGeometry relative="1" as="geometry" />
        </mxCell>
        <mxCell id="OjlFNNu3Qq9sXmpgGspE-14" style="edgeStyle=orthogonalEdgeStyle;rounded=0;orthogonalLoop=1;jettySize=auto;html=1;exitX=0.5;exitY=1;exitDx=0;exitDy=0;entryX=0.5;entryY=0;entryDx=0;entryDy=0;" edge="1" parent="1" source="OjlFNNu3Qq9sXmpgGspE-1" target="OjlFNNu3Qq9sXmpgGspE-7">
          <mxGeometry relative="1" as="geometry" />
        </mxCell>
        <mxCell id="OjlFNNu3Qq9sXmpgGspE-1" value="Marcar aula" style="rounded=0;whiteSpace=wrap;html=1;" vertex="1" parent="1">
          <mxGeometry x="320" y="40" width="160" height="80" as="geometry" />
        </mxCell>
        <mxCell id="OjlFNNu3Qq9sXmpgGspE-2" value="Ir a horário" style="rounded=0;whiteSpace=wrap;html=1;" vertex="1" parent="1">
          <mxGeometry y="200" width="120" height="80" as="geometry" />
        </mxCell>
        <mxCell id="OjlFNNu3Qq9sXmpgGspE-3" value="Clicar em &quot;Marcar Aula&quot;" style="rounded=0;whiteSpace=wrap;html=1;" vertex="1" parent="1">
          <mxGeometry x="160" y="200" width="130" height="80" as="geometry" />
        </mxCell>
        <mxCell id="OjlFNNu3Qq9sXmpgGspE-4" value="Selecionar tipo de aula" style="rounded=0;whiteSpace=wrap;html=1;" vertex="1" parent="1">
          <mxGeometry x="320" y="200" width="160" height="80" as="geometry" />
        </mxCell>
        <mxCell id="OjlFNNu3Qq9sXmpgGspE-11" style="edgeStyle=orthogonalEdgeStyle;rounded=0;orthogonalLoop=1;jettySize=auto;html=1;exitX=0.5;exitY=1;exitDx=0;exitDy=0;" edge="1" parent="1" source="OjlFNNu3Qq9sXmpgGspE-5">
          <mxGeometry relative="1" as="geometry">
            <mxPoint x="580" y="360" as="targetPoint" />
          </mxGeometry>
        </mxCell>
        <mxCell id="OjlFNNu3Qq9sXmpgGspE-5" value="Arrastar para a grelha de horario" style="rounded=0;whiteSpace=wrap;html=1;" vertex="1" parent="1">
          <mxGeometry x="520" y="200" width="120" height="80" as="geometry" />
        </mxCell>
        <mxCell id="OjlFNNu3Qq9sXmpgGspE-7" value="Clicar em salvar" style="rounded=0;whiteSpace=wrap;html=1;" vertex="1" parent="1">
          <mxGeometry x="680" y="200" width="120" height="80" as="geometry" />
        </mxCell>
        <mxCell id="OjlFNNu3Qq9sXmpgGspE-12" value="Ver disponibilidade" style="rounded=0;whiteSpace=wrap;html=1;" vertex="1" parent="1">
          <mxGeometry x="520" y="360" width="120" height="80" as="geometry" />
        </mxCell>
      </root>
    </mxGraphModel>
  </diagram>
</mxfile>
